<?xml version="1.0" encoding="utf-8"?>
<!-- Generator: Adobe Illustrator 23.0.3, SVG Export Plug-In . SVG Version: 6.00 Build 0)  -->
<svg version="1.0" id="Layer_2" xmlns="http://www.w3.org/2000/svg" xmlns:xlink="http://www.w3.org/1999/xlink" x="0px" y="0px"
	 viewBox="0 0 689 516.7" style="enable-background:new 0 0 689 516.7;" xml:space="preserve">
<g style="opacity:0.71;">
	<defs>
		<rect id="SVGID_1_" y="-41.6" style="opacity:0.71;" width="681" height="555"/>
	</defs>
	<clipPath id="SVGID_2_">
		<use xlink:href="#SVGID_1_"  style="overflow:visible;"/>
	</clipPath>
	<g style="clip-path:url(#SVGID_2_);">
		<linearGradient id="SVGID_3_" gradientUnits="userSpaceOnUse" x1="24.3902" y1="348.266" x2="691.3902" y2="348.266">
			<stop  offset="0" style="stop-color:#FFFFFF"/>
			<stop  offset="0.1014" style="stop-color:#FFF8FA"/>
			<stop  offset="0.2438" style="stop-color:#FFE6ED"/>
			<stop  offset="0.4105" style="stop-color:#FFC8D6"/>
			<stop  offset="0.5955" style="stop-color:#FF9EB7"/>
			<stop  offset="0.7957" style="stop-color:#FF698F"/>
			<stop  offset="1" style="stop-color:#FF2A61"/>
		</linearGradient>
		<polygon style="fill:url(#SVGID_3_);" points="690.4,239.8 35.4,475.8 24.4,397.8 691.4,220.8 		"/>
		<linearGradient id="SVGID_4_" gradientUnits="userSpaceOnUse" x1="15.3902" y1="389.766" x2="689.3902" y2="389.766">
			<stop  offset="0" style="stop-color:#FFFFFF"/>
			<stop  offset="0.1014" style="stop-color:#FFF8FA"/>
			<stop  offset="0.2438" style="stop-color:#FFE6ED"/>
			<stop  offset="0.4105" style="stop-color:#FFC8D6"/>
			<stop  offset="0.5955" style="stop-color:#FF9EB7"/>
			<stop  offset="0.7957" style="stop-color:#FF698F"/>
			<stop  offset="1" style="stop-color:#FF2A61"/>
		</linearGradient>
		<polygon style="fill:url(#SVGID_4_);" points="689.4,248.8 15.4,530.8 107.4,530.8 688.4,261.8 		"/>
		<linearGradient id="SVGID_5_" gradientUnits="userSpaceOnUse" x1="178.3902" y1="406.766" x2="689.3902" y2="406.766">
			<stop  offset="0" style="stop-color:#FFFFFF"/>
			<stop  offset="0.1014" style="stop-color:#FFF8FA"/>
			<stop  offset="0.2438" style="stop-color:#FFE6ED"/>
			<stop  offset="0.4105" style="stop-color:#FFC8D6"/>
			<stop  offset="0.5955" style="stop-color:#FF9EB7"/>
			<stop  offset="0.7957" style="stop-color:#FF698F"/>
			<stop  offset="1" style="stop-color:#FF2A61"/>
		</linearGradient>
		<polygon style="fill:url(#SVGID_5_);" points="689.4,282.8 178.4,530.8 280.4,530.8 688.4,301.8 		"/>
	</g>
	<g style="clip-path:url(#SVGID_2_);">
		<linearGradient id="SVGID_6_" gradientUnits="userSpaceOnUse" x1="197.9927" y1="333.7337" x2="371.9839" y2="333.7337">
			<stop  offset="0" style="stop-color:#FFFFFF"/>
			<stop  offset="0.2899" style="stop-color:#FCFCFC"/>
			<stop  offset="0.4781" style="stop-color:#F4F4F4"/>
			<stop  offset="0.6375" style="stop-color:#E5E6E6"/>
			<stop  offset="0.7809" style="stop-color:#D0D1D3"/>
			<stop  offset="0.9121" style="stop-color:#B5B7B9"/>
			<stop  offset="1" style="stop-color:#9EA1A4"/>
		</linearGradient>
		<path style="fill:url(#SVGID_6_);" d="M198,343.9c0,0,111,27,174-27L198,343.9z"/>
		<linearGradient id="SVGID_7_" gradientUnits="userSpaceOnUse" x1="6.0015" y1="368.6039" x2="253.4893" y2="368.6039">
			<stop  offset="0" style="stop-color:#FFFFFF"/>
			<stop  offset="0.3368" style="stop-color:#C4C2C0"/>
			<stop  offset="0.6417" style="stop-color:#95918E"/>
			<stop  offset="0.8716" style="stop-color:#78736F"/>
			<stop  offset="1" style="stop-color:#6D6863"/>
		</linearGradient>
		<polygon style="opacity:0.6;fill:url(#SVGID_7_);" points="246,327.4 6,409.9 253.5,339.4 		"/>
		
			<linearGradient id="SVGID_8_" gradientUnits="userSpaceOnUse" x1="-5.0088" y1="349.084" x2="242.472" y2="349.084" gradientTransform="matrix(0.9995 3.280000e-02 -3.280000e-02 0.9995 12.0239 -3.6994)">
			<stop  offset="0" style="stop-color:#FFFFFF"/>
			<stop  offset="0.202" style="stop-color:#D0D0D1"/>
			<stop  offset="0.4721" style="stop-color:#989799"/>
			<stop  offset="0.7039" style="stop-color:#6F6D71"/>
			<stop  offset="0.8856" style="stop-color:#555358"/>
			<stop  offset="0.9946" style="stop-color:#4C4A4F"/>
		</linearGradient>
		<polygon style="opacity:0.6;fill:url(#SVGID_8_);" points="236.8,311.7 -5.8,386.3 243.9,323.9 		"/>
		<linearGradient id="SVGID_9_" gradientUnits="userSpaceOnUse" x1="106.2534" y1="238.0289" x2="689.9634" y2="238.0289">
			<stop  offset="0" style="stop-color:#E5E2EA"/>
			<stop  offset="0.3643" style="stop-color:#E2DFE7"/>
			<stop  offset="0.6009" style="stop-color:#DAD7DF"/>
			<stop  offset="0.8005" style="stop-color:#CBC9D1"/>
			<stop  offset="0.9796" style="stop-color:#B6B6BD"/>
			<stop  offset="1" style="stop-color:#B3B3BA"/>
		</linearGradient>
		<path style="fill:url(#SVGID_9_);" d="M690,234.4l-0.6-70.6c0,0-132-35.6-250.3-10.5c-2.2,0.5-4.5,1-6.7,1.5c0,0-369,142-322,177
			L690,234.4z"/>
		<linearGradient id="SVGID_10_" gradientUnits="userSpaceOnUse" x1="107.32" y1="277.8311" x2="689.9634" y2="277.8311">
			<stop  offset="0" style="stop-color:#B6B9BB"/>
			<stop  offset="0.2952" style="stop-color:#B3B6B8"/>
			<stop  offset="0.4869" style="stop-color:#ABAEB0"/>
			<stop  offset="0.6493" style="stop-color:#9CA0A2"/>
			<stop  offset="0.7952" style="stop-color:#878B8F"/>
			<stop  offset="0.9289" style="stop-color:#6C7176"/>
			<stop  offset="1" style="stop-color:#5A6065"/>
		</linearGradient>
		<path style="fill:url(#SVGID_10_);" d="M107.4,323.8c0,0-2,14,45-1l537-110l0.6,21.6l-187.6,54.4c0,0-89.8,44.2-136.4,29.6
			C366,318.4,102.4,369.8,107.4,323.8z"/>
		<linearGradient id="SVGID_11_" gradientUnits="userSpaceOnUse" x1="303.1608" y1="221.1752" x2="145.6688" y2="314.1703">
			<stop  offset="0" style="stop-color:#FF2A61"/>
			<stop  offset="1" style="stop-color:#FFEA94"/>
		</linearGradient>
		<path style="fill:url(#SVGID_11_);" d="M260.7,217.8c0,0-157.3,78-146.7,100.7c0,0,1.3,4.7,16.7,1.3c0,0,93.1-24.7,230.7-100.7"/>
		<linearGradient id="SVGID_12_" gradientUnits="userSpaceOnUse" x1="256.1163" y1="210.2945" x2="407.3892" y2="210.2945">
			<stop  offset="0" style="stop-color:#676E75"/>
			<stop  offset="5.998689e-02" style="stop-color:#4C5156"/>
			<stop  offset="0.1274" style="stop-color:#34383B"/>
			<stop  offset="0.2049" style="stop-color:#212325"/>
			<stop  offset="0.2954" style="stop-color:#121314"/>
			<stop  offset="0.4072" style="stop-color:#080809"/>
			<stop  offset="0.5642" style="stop-color:#020202"/>
			<stop  offset="1" style="stop-color:#000000"/>
		</linearGradient>
		<path style="fill:url(#SVGID_12_);" d="M316.7,190.4c0,0-73.3,25.3-58.7,35.3c0,0,62,20,149.3-25.3L316.7,190.4z"/>
		<linearGradient id="SVGID_13_" gradientUnits="userSpaceOnUse" x1="450.183" y1="130.6449" x2="355.6633" y2="215.2732">
			<stop  offset="0" style="stop-color:#C2CFDB"/>
			<stop  offset="0.4743" style="stop-color:#788088"/>
			<stop  offset="0.8293" style="stop-color:#474B50"/>
			<stop  offset="1" style="stop-color:#34373A"/>
		</linearGradient>
		<path style="fill:url(#SVGID_13_);" d="M296.1,198.4c0,0,35.3,14,114,1.3c0,0,82-16,77.3-40c0,0-6-8.7-40-9.3
			C447.4,150.4,364.7,143.8,296.1,198.4z"/>
		<path style="fill:#FFFFFF;" d="M304.6,267.3c0,0,48.2-47,209-96.5c0,0,135.2-22.3,179.8-0.2v6.9
			C693.4,177.5,555,127.1,304.6,267.3z"/>
		<linearGradient id="SVGID_14_" gradientUnits="userSpaceOnUse" x1="624.8708" y1="172.3868" x2="623.8708" y2="209.3872">
			<stop  offset="0" style="stop-color:#676E75"/>
			<stop  offset="8.724129e-02" style="stop-color:#555B61"/>
			<stop  offset="0.2641" style="stop-color:#373A3E"/>
			<stop  offset="0.4438" style="stop-color:#1F2123"/>
			<stop  offset="0.6252" style="stop-color:#0E0F0F"/>
			<stop  offset="0.8092" style="stop-color:#030404"/>
			<stop  offset="1" style="stop-color:#000000"/>
		</linearGradient>
		<path style="fill:url(#SVGID_14_);" d="M558.7,179.8c0,0,5.3,26,1.3,36l130-14.7v-23.3C690.1,177.8,575.4,176.4,558.7,179.8z"/>
		<path style="fill:#46403E;" d="M121.5,339.4c0,0,186-13.5,241.5-30c0,0,6-9,18-13.5c0,0-22.5,28.5,112.5-13.5l-1.5-7.5l199.5-48
			l-1.5,7.5l-192,57c0,0-103.5,45-132,27C366,318.4,229.5,360.4,121.5,339.4z"/>
		<linearGradient id="SVGID_15_" gradientUnits="userSpaceOnUse" x1="166.3902" y1="272.266" x2="691.3902" y2="272.266">
			<stop  offset="0" style="stop-color:#FFFFFF"/>
			<stop  offset="0.1601" style="stop-color:#FBFBFB"/>
			<stop  offset="0.316" style="stop-color:#EFF0F0"/>
			<stop  offset="0.4702" style="stop-color:#DCDDDE"/>
			<stop  offset="0.6233" style="stop-color:#C0C3C5"/>
			<stop  offset="0.7758" style="stop-color:#9DA0A3"/>
			<stop  offset="0.9256" style="stop-color:#72777C"/>
			<stop  offset="1" style="stop-color:#5A6065"/>
		</linearGradient>
		<path style="fill:url(#SVGID_15_);" d="M691.4,220.8l-525,107c0,0,397-98,524-111L691.4,220.8z"/>
		<g>
			<polygon style="fill:#FFFFFF;" points="516.4,241.8 523.4,245.8 690.4,216.8 689.4,212.8 			"/>
			<path style="fill:#5E605E;" d="M516.4,241.8l7,4l0,0l41.7-7.5l41.7-7.3l83.5-14.7l-0.4,0.6l-1-4l0.6,0.4l-86.5,14.3l-43.3,7.2
				L516.4,241.8z M516.4,241.8l43.2-7.5l43.2-7.3l86.5-14.7l0.5-0.1l0.1,0.4l1,4l0.1,0.5l-0.5,0.1l-83.5,14.3l-41.8,7.2l-41.8,7l0,0
				l0,0L516.4,241.8z"/>
		</g>
		<linearGradient id="SVGID_16_" gradientUnits="userSpaceOnUse" x1="625.0503" y1="187.2676" x2="625.0503" y2="214.7108">
			<stop  offset="0" style="stop-color:#FF2A61"/>
			<stop  offset="1" style="stop-color:#FFEA94"/>
		</linearGradient>
		<path style="fill:url(#SVGID_16_);" d="M561.4,200l128.6-8.5l0,9.6l-130,14.7C560.1,215.8,562.7,205.5,561.4,200z"/>
		
			<linearGradient id="SVGID_17_" gradientUnits="userSpaceOnUse" x1="391.3961" y1="284.4628" x2="482.6609" y2="284.4628" gradientTransform="matrix(0.9902 -0.1395 0.1395 0.9902 -35.0155 66.1199)">
			<stop  offset="0" style="stop-color:#FFFFFF"/>
			<stop  offset="0.1601" style="stop-color:#FBFBFB"/>
			<stop  offset="0.316" style="stop-color:#EFF0F0"/>
			<stop  offset="0.4702" style="stop-color:#DCDDDE"/>
			<stop  offset="0.6233" style="stop-color:#C0C3C5"/>
			<stop  offset="0.7758" style="stop-color:#9DA0A3"/>
			<stop  offset="0.9256" style="stop-color:#72777C"/>
			<stop  offset="1" style="stop-color:#5A6065"/>
		</linearGradient>
		<path style="fill:url(#SVGID_17_);" d="M482.6,280.5c-0.4-2.9-21-2.4-45.9,1.1c-25,3.5-44.9,8.7-44.4,11.7
			c0.4,2.9,21,2.4,45.9-1.1C463.1,288.6,483,283.4,482.6,280.5z"/>
		<g style="opacity:0.3;">
			<path style="fill:#000086;" d="M114.1,318.4c0,0,9.4-5.7,23.4-14.4c7-4.3,15.2-9.3,24-14.6c8.8-5.3,18.2-11,27.6-16.6
				c9.4-5.6,18.8-11.3,27.7-16.5c8.8-5.2,17.1-10.1,24.2-14.3c14.2-8.3,23.7-13.9,23.7-13.9s-9.4,5.7-23.4,14.4
				c-7,4.3-15.2,9.3-24,14.6c-8.8,5.3-18.2,11-27.6,16.6c-9.4,5.6-18.8,11.3-27.7,16.5c-8.8,5.2-17.1,10.1-24.2,14.3
				C123.5,312.9,114.1,318.4,114.1,318.4z"/>
		</g>
		<path style="opacity:0.2;fill:#FFFFFF;" d="M138.4,310.6l125.2-73.8C263.6,236.8,223.8,284.4,138.4,310.6z"/>
		<path style="fill:#FFFFFF;" d="M332.6,204.8c0,0,63.1-50.5,113.6-44.7c0,0-53.4,2.9-97.4,45L332.6,204.8z"/>
	</g>
</g>
</svg>
